<svg xmlns="http://www.w3.org/2000/svg" viewBox="0 0 481.13 478.71"><title>alinog</title><g id="Layer_2" data-name="Layer 2"><g id="Layer_1-2" data-name="Layer 1"><rect x="5" y="5" width="471.13" height="468.71" style="fill:#754c29;stroke:#fff;stroke-miterlimit:10;stroke-width:10px"/><rect x="6.21" y="5" width="468.71" height="468.71" style="fill:#ab1f24"/><path d="M348.63,39.27h1.68c7.19,0,14.38,0,21.57,0a2.74,2.74,0,0,1,2.75,1.68q20.3,35.39,40.65,70.75,1.68,2.94,3.39,5.86a1,1,0,0,0,.7.45V39.4h22.16c.34,1.34.43,112.28.08,114.5a7.88,7.88,0,0,1-1.13.16c-7.07,0-14.14,0-21.21,0a2.24,2.24,0,0,1-2.16-1.45q-9.39-16.28-18.84-32.53Q385.12,97.47,372,74.81c-.25-.43-.55-.85-.82-1.27l-.35.08V154H348.74l-.15-.13a.31.31,0,0,1-.09-.14,6.71,6.71,0,0,1-.09-.89q0-56.4,0-112.82A3.73,3.73,0,0,1,348.63,39.27Z" style="fill:#fff"/><path d="M65,130.24,56.88,154H31.55L72.68,39.36h27.58Q120.78,96.54,141.4,154H115.29q-3.67-11.82-7.39-23.75Zm35.76-20.42C96,95.15,91.3,80.69,86.63,66.23l-.41,0L71.68,109.82Z" style="fill:#fff"/><path d="M179.7,133.86h57.15v19.91c-1.31.37-77.65.52-80.67.17-.37-1.26-.47-112.44-.08-114.56h23.48c0,.67.12,1.36.12,2q0,9.7,0,19.42v73Z" style="fill:#fff"/><path d="M22.14,212.55v-2.2a1.09,1.09,0,0,1,.16-.23.28.28,0,0,1,.16-.07l421.9-.09c.35,0,.7.06,1.17.1v2.49Z" style="fill:#fff"/><path d="M137.51,445.15V402.59c2.17,0,4.24-.07,6.29.05.43,0,.92.66,1.22,1.12,2,3.22,4,6.46,6,9.69q6.68,10.74,13.34,21.5a3.79,3.79,0,0,0,1.23,1.31V402.68a44.26,44.26,0,0,1,5.37-.08c.41,1.33.54,39.91.14,42.65-1.89,0-3.84.09-5.77-.06-.48,0-1-.71-1.35-1.22-3.07-4.8-6.09-9.64-9.14-14.46l-10.54-16.73a5.55,5.55,0,0,0-1.06-1.27c-.17,2.76-.16,5.51-.16,8.26s0,5.7,0,8.55v16.83Z" style="fill:#fff"/><path d="M289.3,234v33.38a30.57,30.57,0,0,1-5.36.19c-.41-1.33-.52-40.16-.11-42.62H290c.83,0,1,.73,1.35,1.26q4.33,7,8.65,13.93l10.61,17.11c.28.45.58.89.95,1.46a2.72,2.72,0,0,0,.31-1.91q0-14.79,0-29.59V225h5.36c.4,1.22.54,39.55.13,42.54h-5.77c-.82,0-1-.73-1.36-1.25q-4.33-6.86-8.65-13.72l-10.92-17.34c-.31-.48-.65-.93-1-1.4Z" style="fill:#fff"/><path d="M98.53,386c-2,0-3.78,0-5.62,0-.91,0-1.17-.7-1.54-1.28l-7.22-11.46Q78,363.49,71.81,353.69a4.2,4.2,0,0,0-1.32-1.4c0,1.85,0,3.7,0,5.55s0,3.68,0,5.52V385.9h-5.4c-.39-1.56-.4-40.81,0-42.54,2,0,4,0,6,0,.84,0,1.06.66,1.39,1.19q3.54,5.67,7,11.35l12.3,19.83a4,4,0,0,0,1.31,1.4V343.47h5.28l.12.11a.33.33,0,0,1,.1.14,4.19,4.19,0,0,1,.09.7q0,20.31,0,40.63A8,8,0,0,1,98.53,386Z" style="fill:#fff"/><path d="M287.39,326.67h-7a30.6,30.6,0,0,1-1-7.07c-.1-1.24,0-2.49-.09-3.74a21.39,21.39,0,0,0-.33-2.64,5.11,5.11,0,0,0-4.54-4.37,17.94,17.94,0,0,0-2.83-.26c-4,0-8,0-11.94,0-.41,0-.83.05-1.43.09a22.93,22.93,0,0,0-.14,4.38c0,1.54,0,3.09,0,4.63v9h-5.72V284.29a8.52,8.52,0,0,1,1.19-.17c6.54,0,13.07-.05,19.6.06a22.1,22.1,0,0,1,5.6.88,9.11,9.11,0,0,1,6.89,7.82,20.19,20.19,0,0,1,0,5.49,9.65,9.65,0,0,1-4,6.53l-1.19.89c0,.18,0,.27.08.29,3.46,1.61,4.32,4.63,4.45,8.08.08,2.32.23,4.63.31,6.94.07,1.81.12,3.61,2,4.66.08,0,.12.2.14.31A5.91,5.91,0,0,1,287.39,326.67Zm-29.24-23c.67,0,1.13.08,1.6.08,3.85,0,7.71,0,11.56,0a14.77,14.77,0,0,0,2.3-.19c4.05-.63,6.05-2.67,6.23-6.71.2-4.42-1.63-7-6.38-7.54a13.47,13.47,0,0,0-1.42,0H259.59c-.45,0-.9.08-1.44.13Z" style="fill:#fff"/><path d="M160.51,326.61v-42.4c.57,0,1-.09,1.51-.09,5.17,0,10.33-.05,15.5,0a23,23,0,0,1,5.11.58c5.22,1.29,8.69,4.68,10.79,9.53a28.22,28.22,0,0,1,1.92,12.57,24.61,24.61,0,0,1-3,11.41c-3.06,5.38-7.65,8.37-13.89,8.49-5.64.11-11.28,0-16.93,0A7.52,7.52,0,0,1,160.51,326.61Zm5.86-5c3.66,0,7.1-.1,10.54,0a11.24,11.24,0,0,0,11.42-8.6,31.19,31.19,0,0,0,1-5.77A22.56,22.56,0,0,0,187.66,296a10.58,10.58,0,0,0-9.55-6.65c-3.79-.2-7.59,0-11.39,0-.1,0-.19.11-.35.21Z" style="fill:#fff"/><path d="M185,445.15V402.89c1.29-.4,27.38-.57,31.13-.19a25.32,25.32,0,0,1,.07,4.88c-.72,0-1.41.1-2.09.1H190.87v13.07c2.55,0,5.08,0,7.61,0h15.65v5a45.58,45.58,0,0,1-5.74.13c-1.9,0-3.8,0-5.7,0H191.17c-.49,1.32-.62,11.51-.18,14.11h25.6v5.09Z" style="fill:#fff"/><path d="M418,366.73v14.06H443.5a19.35,19.35,0,0,1,.22,5c-2,.38-30.26.32-31.63,0V343.47h31.14v5H418v13.07h23.22a23.11,23.11,0,0,1,.09,5.2Z" style="fill:#fff"/><path d="M329.5,296.53h-5.11c-.17-.68-.33-1.24-.47-1.8a7.68,7.68,0,0,0-5.71-6,14.66,14.66,0,0,0-9.78.37,6.29,6.29,0,0,0-4.14,6.77,4.4,4.4,0,0,0,2.62,3.94,18.79,18.79,0,0,0,3.19,1.1c3.92,1,7.85,1.89,11.77,2.85a17.45,17.45,0,0,1,2.54.81,10,10,0,0,1,6.64,9.45c.3,6.42-2.57,10.68-8.71,12.67a26,26,0,0,1-15.1.34c-6.35-1.75-10.12-7-9.95-13.69a13,13,0,0,1,5.35-.13c.07.47.16,1,.25,1.49a8.43,8.43,0,0,0,6.05,7.23,19.32,19.32,0,0,0,11.75,0c4.45-1.39,5.12-4.95,4.52-8.13a4.62,4.62,0,0,0-2.94-3.57,62.45,62.45,0,0,0-6.25-2c-2.64-.69-5.32-1.2-8-1.82a19.36,19.36,0,0,1-2.72-.81c-5.09-2.05-7.29-5.36-6.64-11.22a11.5,11.5,0,0,1,9-10.52,21.53,21.53,0,0,1,14.48.78A11.71,11.71,0,0,1,329.5,296.53Z" style="fill:#fff"/><path d="M119.83,372.34h5.28c.09.56.16,1,.23,1.47.61,3.83,2.69,6.44,6.47,7.48a19.62,19.62,0,0,0,11.58-.21c3.19-1.07,4.68-3.52,4.47-6.88a5,5,0,0,0-3.16-4.77,58.19,58.19,0,0,0-6.6-2.1c-2.58-.68-5.21-1.17-7.81-1.8a17.12,17.12,0,0,1-2.87-.92c-4.57-1.95-6.89-5-6.27-10.93.59-5.64,3.87-9.35,9.4-10.76a22.19,22.19,0,0,1,13,.46,11.83,11.83,0,0,1,8.42,9.89c.12.75.13,1.51.2,2.4h-5.3c-.15-.56-.3-1.07-.42-1.58a7.78,7.78,0,0,0-6-6.2,14.61,14.61,0,0,0-9.44.39,6.33,6.33,0,0,0-4.28,6.69,4.42,4.42,0,0,0,2.52,4,17.16,17.16,0,0,0,3.18,1.12c3.86,1,7.73,1.88,11.59,2.81l.7.16c7.64,2.06,11,9.24,7.77,16.5a11.34,11.34,0,0,1-5.93,5.66A23.62,23.62,0,0,1,134.4,387a26.11,26.11,0,0,1-6.07-1.26C123.32,384.06,119.49,379,119.83,372.34Z" style="fill:#fff"/><path d="M78.57,302.35h23.29v5.12H78.58v14.15h25.64v5H72.68v-42.2c1.31-.39,29.11-.47,31.16-.08v4.77a44.24,44.24,0,0,1-4.89.1c-1.72,0-3.45,0-5.17,0H78.57Z" style="fill:#fff"/><path d="M208.17,284.21h31.14v5H214.05v13.13h23.29v5.13H214.06v14.15h25.61a18.52,18.52,0,0,1,.13,4.85c-1.35.36-29.45.45-31.63.1Z" style="fill:#fff"/><path d="M241,248.25v14.17c8.58,0,17.09,0,25.8,0,0,1,.06,1.77.07,2.58s0,1.52,0,2.4H235.18V225.18c1.35-.35,28.87-.45,31.09-.1V230H241v13.12h23.13c.46,1.75.14,3.33.24,5.13-4,.09-7.81,0-11.64,0Z" style="fill:#fff"/><path d="M209.75,225h5.56c.4,1.22.57,39,.16,42.5l-2.74,0h-2.9c-.08-6.67,0-13.22-.05-19.85H187.92v19.73h-5.77V225h5.76v17.35h21.84Z" style="fill:#fff"/><path d="M343.19,284.2h5.64c.13,1.89.05,3.77.06,5.65s0,3.92,0,5.88v5.63c1.48.39,20,.44,21.9.07V284.19c1.95-.13,3.76-.07,5.54-.05.41,1.31.53,39.93.14,42.49h-5.57V307.14c-1.51-.42-20.11-.47-22-.07v19.57h-5.72Z" style="fill:#fff"/><path d="M305.16,343.44h5.63c0,.72.11,1.4.11,2.09,0,8.08,0,16.16,0,24.24a25.45,25.45,0,0,0,.46,4.77c.81,4,3.37,6.32,7.28,7.15a15.39,15.39,0,0,0,6.55,0c4.58-1,7.1-4.1,7.52-9.15.07-.89.07-1.78.07-2.68V343.49a53.79,53.79,0,0,1,5.68-.14c.06.65.15,1.16.15,1.67V371.4a16.44,16.44,0,0,1-1.78,7.73,13.39,13.39,0,0,1-8.34,7,23.09,23.09,0,0,1-12,.44c-7.14-1.65-11.35-6.6-11.46-13.93-.16-9.44,0-18.89,0-28.34C305,344.11,305.1,343.88,305.16,343.44Z" style="fill:#fff"/><path d="M284,402.62h6.67q7.57,21.08,15.17,42.24a14.69,14.69,0,0,1-6.26.27c-1.33-4-2.69-8-4-12-1.32-.35-13.9-.47-17.24-.15-.72,2-1.46,4-2.2,6.07l-2.23,6.11h-5.94c1.65-4.84,3.54-9.47,5.3-14.16s3.57-9.43,5.36-14.14S282.18,407.42,284,402.62Zm3.33,6.95-.43,0-6.61,18h13C291.29,421.45,289.31,415.51,287.34,409.57Z" style="fill:#fff"/><path d="M128.55,284.18h6.7l15.24,42.47h-6.35l-4-12c-1.29-.4-14.26-.53-17.25-.16l-4.42,12.13h-6C117.8,312.39,123.18,298.3,128.55,284.18Zm3.33,6.88c-.23.13-.44.17-.47.27-2.19,5.87-4.35,11.74-6.58,17.77h13C135.86,303,133.88,297.09,131.88,291.06Z" style="fill:#fff"/><path d="M417.85,308.83v17.81h-5.74V284.2c.65,0,1.22-.08,1.8-.08,5.58,0,11.16-.05,16.74,0a18.9,18.9,0,0,1,5.09.65,10.66,10.66,0,0,1,7.87,9.18,16.35,16.35,0,0,1-.07,5.13c-1,5.78-5.66,9.61-11.7,9.71-3.92.06-7.84,0-11.76,0Zm.1-5.14c.52,0,.81.09,1.1.09,3.56,0,7.12,0,10.69,0a13,13,0,0,0,3.16-.45,5.89,5.89,0,0,0,4.63-4.87,14,14,0,0,0,.07-3.88,5.23,5.23,0,0,0-3.72-4.58,12.67,12.67,0,0,0-3.65-.69c-3.68-.1-7.36,0-11,0a9.92,9.92,0,0,0-1.24.17Z" style="fill:#fff"/><path d="M438.64,252.11H444a17.37,17.37,0,0,1-15.66,16.39,26.16,26.16,0,0,1-6.56-.17c-7.11-1.22-11.69-5.61-14-12.27a29.58,29.58,0,0,1-.16-19.09c2.41-7.52,8.63-13.54,19.33-13.2a24.12,24.12,0,0,1,3.89.43c7.08,1.4,11.49,6,12.74,13.11-1.1.48-2.83.57-5.46.25-.24-.61-.49-1.27-.75-1.92a10,10,0,0,0-7.55-6.38c-8-1.77-14.71,2.27-16.74,10.19a28.08,28.08,0,0,0,0,13.93,13.9,13.9,0,0,0,.55,1.69A12.74,12.74,0,0,0,430,263a11,11,0,0,0,6.74-6C437.44,255.48,438,253.84,438.64,252.11Z" style="fill:#fff"/><path d="M58.47,255.16H41.35l-4.47,12.27h-6C36.27,253.19,41.61,239.12,47,225h6.74l15.14,42.18a17,17,0,0,1-6.32.17Zm-8.13-23.32-.4,0c-2.19,6-4.47,12-6.58,18h13Z" style="fill:#fff"/><path d="M84,225h5.61c0,.7.06,1.39.07,2.07,0,8,0,15.93,0,23.89a28.34,28.34,0,0,0,.36,4.6,8.85,8.85,0,0,0,7.4,7.67,15.27,15.27,0,0,0,6.89-.08,8.78,8.78,0,0,0,7-7.65,26.4,26.4,0,0,0,.33-4.26c0-8.08,0-16.16,0-24.24v-2h5.65a10.77,10.77,0,0,1,.16,1.35c0,8.91.07,17.83,0,26.74a18.55,18.55,0,0,1-1.14,6.08,13.31,13.31,0,0,1-9.62,8.73,23,23,0,0,1-12.66-.1c-6.26-1.93-10-6.67-10.08-13.17-.14-9.57-.06-19.13-.06-28.7A7.89,7.89,0,0,1,84,225Z" style="fill:#fff"/><path d="M228.66,402.65c.6,0,1-.08,1.41-.08,6,0,12,0,18,0a14.79,14.79,0,0,1,3.69.51c5.39,1.42,8.74,6.09,8.56,11.87-.15,5.11-2.2,9.11-7,11.22a13.2,13.2,0,0,1-4.65,1c-4,.15-8.07.08-12.11.09h-2.14v17.85h-5.71Zm5.79,19.46c4.57,0,9,.06,13.33,0a8.67,8.67,0,0,0,3.05-.89,5.31,5.31,0,0,0,3-3.39,9.51,9.51,0,0,0,.31-4.91,5.58,5.58,0,0,0-4.2-4.6,16.28,16.28,0,0,0-3.86-.56c-3.32-.08-6.65,0-10,0-.52,0-1,.07-1.62.11Z" style="fill:#fff"/><path d="M271.55,385.91h-5.84v-37.4h-14.1a21,21,0,0,1-.2-4.83c1.34-.39,31.72-.51,34.37-.13,0,.76.07,1.57.08,2.38s0,1.52,0,2.51H271.55Z" style="fill:#fff"/><path d="M171.16,343.44h34.4c0,.87.07,1.68.09,2.49s0,1.52,0,2.5H191.34v37.48h-5.85v-37.4H171.4C170.93,346.8,171.27,345.22,171.16,343.44Z" style="fill:#fff"/><path d="M378.15,385.89h-5.83V348.48H358.09v-5h34.15a20.78,20.78,0,0,1,.11,5h-14.2Z" style="fill:#fff"/><path d="M352.76,267.45h-5.83c0-6.28,0-12.49,0-18.7V230H332.65v-5H367V230H352.8c0,2.64,0,5.1,0,7.57v29.93Z" style="fill:#fff"/><path d="M132.83,230.07a8.81,8.81,0,0,1-.16-1.15c0-1.24,0-2.48,0-3.69,1.34-.42,31.2-.57,34.31-.19V230H152.81v37.45H147V230.07Z" style="fill:#fff"/><path d="M315.29,402.66h5.64v37.43h21.65V445c-1.4.36-25.3.43-27.24.11C315,443.78,314.9,404.67,315.29,402.66Z" style="fill:#fff"/><path d="M62,326.69H34.8c-.41-1.32-.51-40.28-.09-42.57h5.62v37.47H62Z" style="fill:#fff"/><path d="M225.73,343.43h5.37c.37,1.37.45,40.32.09,42.46h-5.38C225.45,384.55,225.36,345.71,225.73,343.43Z" style="fill:#fff"/><path d="M388.46,267.46h-5.37c-.37-1.36-.45-40.39-.08-42.44h5.39C388.76,226.33,388.84,265.3,388.46,267.46Z" style="fill:#fff"/><path d="M41.05,385.9H35.52V343.44a50.66,50.66,0,0,1,5.37-.05C41.29,344.71,41.42,383.26,41.05,385.9Z" style="fill:#fff"/><path d="M397,326.64h-5.61v-42.4H397Z" style="fill:#fff"/><path d="M264.22,138.62a2.19,2.19,0,0,0-.22.67,16.55,16.55,0,0,1-1.2,5.37c-.34,1-.13,2-.54,3.09a23.8,23.8,0,0,0-.75,4.44,12.36,12.36,0,0,1-.68,3c-.74,1.64,0,3.53-1,5.11-.19.3-.07.81-.1,1.22-.07,1,.28,2.14-.56,3-.06.07,0,.22-.06.34-.22,1.67-.44,3.33-.66,5-2.54-1.3-2.87-2.43-2-4.2a1.56,1.56,0,0,0,.17-.5c.2-1.79.33-3.6.62-5.38.22-1.3.63-2.55.77-3.89a47.89,47.89,0,0,1,1-5.26c.33-1.44.75-2.86,1.11-4.3a11.93,11.93,0,0,0,.61-2.89c0-2.48,1.38-4.65,1.4-7.13,0-1.1.71-2.17,1-3.28.32-1.34.37-2.76.8-4.06s.16-3,1-4.38c.2-.31.05-.82.13-1.22.11-.55.29-1.09.45-1.63a3.28,3.28,0,0,0,.17-.5,29.7,29.7,0,0,1,.65-5.2c.56-1.78.12-3.72,1.06-5.42.18-.32.07-.81.1-1.22a9.4,9.4,0,0,1,.51-3.79c.41-.88.07-2.11.13-3.17.1-1.51-.36-3.07.44-4.53.09-.18-.16-.54-.21-.82a2,2,0,0,1-.07-1c.67-1.79.36-3.56.09-5.58,1.36.15,2.77-.51,4.16.44a2.71,2.71,0,0,0,1.38.17c2.2,0,4.4,0,6.6,0a5.8,5.8,0,0,0,3.05-.51c.83-.46,2-.25,3.16-.34v3.11l-2.05.33,0,.26,1.91.23c.68.66-.41,1.33.12,2.13.24.35-.43,1.32-.7,2.06h-3.82c.55.86,1.24.53,1.8.57s1.29,0,2.1,0c.06.6.14,1.11.14,1.61,0,2.62,0,5.23,0,7.85,0,1.44-.21,2.88.5,4.33.37.76.06,1.85.38,2.85a2.73,2.73,0,0,0,.3-.79c0-1.31,0-2.62,0-3.92.18-3.7.4-7.4.6-11.11,1.69-1,3,.8,4.64.35.17,1.22.49,2.26-.28,3.32-.27.37-.12,1-.16,1.56-.12,1.63.33,3.3-.53,4.88a3.24,3.24,0,0,0-.06,1.4c0,4.82,0,9.63,0,14.44a16.61,16.61,0,0,0,.45,2.38,10.4,10.4,0,0,1,.11,1.58c0,1.71,0,3.42,0,5.22,1.08-.65,1.07-.65.83-1.64,0-.16-.12-.39-.05-.48.77-.88.32-1.93.41-2.9.07-.65,0-1.3,0-2q.26-6.45.52-12.9c.91-1.63.23-3.54.77-5.12a21.49,21.49,0,0,0,.56-4.66c.14-1.21.46-2.39.75-3.81.44,0,1.14-.28,1.55,0,1.11.64,2.3.36,3.43.57s2.37.75,3.58,1.08a2.29,2.29,0,0,0,1.28-.12,36.17,36.17,0,0,0-9.48-3c.27-1.29.54-2.55.84-3.93a2.77,2.77,0,0,1,1.72.18c1.2.36,2.35,1.35,3.82.73-.36-1.15-1.38-1.22-2.21-1.5s-1.86-.48-3-.76c.37-1.94.49-3.76,1.6-5.42,2,.91,4.22.72,6.11,1.8a.47.47,0,0,0,.17,0c3.29,0,6.53,1,9.84.59a6.6,6.6,0,0,0,1.8-.61c.67-.31,1.31-.69,2-1,.11.16.25.3.23.34-.69,1.32-.48,2.75-.51,4.14a3.66,3.66,0,0,1-.48,2.38c-.23.32-.12.92-.12,1.39,0,3.68,0,7.37,0,11a11.21,11.21,0,0,1-.42,1.83,7.09,7.09,0,0,0-.21,1.37c0,2.2,0,4.4,0,6.6a8.94,8.94,0,0,0,.41,1.64,7.21,7.21,0,0,1,.22,1.38c0,1.78,0,3.56,0,5.34a9.75,9.75,0,0,0,.47,4c.4.9.09,2.11.13,3.18a4.29,4.29,0,0,0,.42,2.57c.23.34.11.92.14,1.39.08,1.21-.18,2.43.52,3.62.34.58.05,1.51.1,2.28.05,1-.24,2.09.53,3.06.27.34.11,1,.11,1.57,0,3.65.77,7.26.6,10.94-.05,1.07.68,2.18.59,3.39a2.15,2.15,0,0,1-.67,1.55c-.88.82-1.73,1.69-2.86,2.79-.07-.82-.14-1.27-.14-1.71,0-3,0-5.94,0-8.91,0-1.09.31-2.25-.56-3.22-.16-.17-.07-.57-.08-.86,0-.84,0-1.67,0-2.5-.16-4-.34-8-.51-12-1-2-.21-4.25-.75-6.22s-.32-3.95-.54-5.91a18.27,18.27,0,0,0-1.08-4.23v2.37c0,1.66-.36,3.44.11,5,.65,2.13.32,4.22.45,6.31a4,4,0,0,1-.43,2.58c-.25.39-.12,1-.12,1.57,0,5.76,0,11.52,0,17.29,0,.74.15,1.5-.47,2.18-.25.28-.17.9-.17,1.37,0,1.6,0,3.21,0,4.81a7.07,7.07,0,0,1-.47,3.08,6.54,6.54,0,0,0-.13,3.16,4.19,4.19,0,0,1-1.4,3.6,36.61,36.61,0,0,0-4.73,5.39c-1.11,1.62-2.68,2.78-3.8,4.31-1.47,2-3.4,3.57-4.84,5.53-.87,1.19-1.87,2.21-2.83,3.29-1.81,2.06-3.65,4.08-5.56,6.21-.45-.43-.84-.85-1.27-1.23-3.7-3.33-7.21-6.9-11-10.15-4-3.52-7.61-7.49-11.56-11.09-.89-.81-1.93-1.46-2.84-2.27a4.44,4.44,0,0,1-1.5-3.6c.05-2.37,0-4.75,0-7.13,0-1.22-.24-2.48.49-3.63.19-.31.07-.82.07-1.23,0-1.78,0-3.57,0-5.35a3.16,3.16,0,0,1,.43-2.2c.28-.34.12-1,.17-1.56.16-1.6,0-3.17.51-4.84.66-2,.49-4.28.64-6.45a4,4,0,0,0-.22-1c1.05-.2,1.06-.24.53-2Z" style="fill:#fff"/><path d="M273.44,72.1c.22,0,.56,0,.64-.18a29.11,29.11,0,0,0,1.77-3.36c.94-2.27,2.59-4.08,3.83-6.14,1.77-2.93,4.55-4.9,6.79-7.38a2.13,2.13,0,0,1,3.14,0,5.27,5.27,0,0,1,1,1.62c.59,1.37,1.12,2.76,1.64,4.16.26.69.43,1.42.66,2.12A19.74,19.74,0,0,1,294,70.35a14,14,0,0,1-.8,3.9,22,22,0,0,1-5.78,8.34l-.77.73c.67-.1,1.06,0,1.23-.19,2.37-2.33,5-4.46,6.37-7.59A16.87,16.87,0,0,0,295.36,72a18.09,18.09,0,0,0,.4-5.06,20.31,20.31,0,0,0-1.52-6.53,22.08,22.08,0,0,1-.79-2.7l.35-.19c1.61,1.62,3.6,3,4.74,4.9a18.41,18.41,0,0,1,2.94,7A14.34,14.34,0,0,1,300,77.46a14.69,14.69,0,0,1-2.8,3.75,27.1,27.1,0,0,1-7.88,5.94A20.35,20.35,0,0,1,284.16,89c-2.28.43-4.56.77-6.86,1a9.63,9.63,0,0,1-2.2-.4,8.45,8.45,0,0,0-1.59-.12,6.78,6.78,0,0,1-6.73-4,1.43,1.43,0,0,0-.23-.27c-1.42-1.62-2.9-3.2-4.25-4.87C258,75,253,70.54,248.28,65.66a7.7,7.7,0,0,1-1.85-4.77c-.1-1.08.28-2.22-.55-3.22-.25-.29-.1-.92-.1-1.4,0-2.55,0-5.11,0-7.66,0-1-.31-2.14.57-3,.1-.1,0-.34.07-.52.18-1.8.27-3.62.56-5.41a28.58,28.58,0,0,1,1-3.43,27.39,27.39,0,0,0,.7-2.66c.52-3,2.71-4.61,5.06-6.09a4.22,4.22,0,0,1,.68-.23l1.91,1.49c-1.31-.17-1.31-.17-1.28.83l1.28-.83a4,4,0,0,1,3.1-.87c1.5.13,3-.24,4.49.56.55.3,1.39.07,2.11.07s1.24,0,1.86,0l.07.37a7.69,7.69,0,0,1-1.11.63c-2.49.9-3.11,3.86-1.57,6.05a1.57,1.57,0,0,0,1.46.81,27.92,27.92,0,0,0,3-.5,15.69,15.69,0,0,0,4.27-1.68c-.57-.09-1-.29-1.26-.16a10.25,10.25,0,0,1-5.2,1.21,3.35,3.35,0,0,0-1,.35,3.27,3.27,0,0,1-.09-4.43,6.71,6.71,0,0,1,2.8-1.94,15.83,15.83,0,0,1,7.66-.57c.8,1.13-.1,2.15-.44,3.35,1.76-.59,1.88-1.91,1.91-3.5,1.47,1.08,2.5,2,2.45,3.87a10.8,10.8,0,0,1-1.22,5.2c-.09.15-.07.37-.18.49-1,1.17-2,2.3-2.91,3.47a11,11,0,0,1-1.4,2c-1.22.94-2.5,2.17-3.9,2.41-2.15.38-4.31,1.25-6.57.78-1.29-.27-2.56-.61-3.84-.92a8.37,8.37,0,0,1-3-1.52c-.93-.69-1.75-1.51-2.73-2.37-.08.25-.25.52-.17.63a8.64,8.64,0,0,0,1.66,2.39,10.29,10.29,0,0,0,4.75,2.32c1.58.23,3.15.56,5.06.91a4.89,4.89,0,0,1-1.14.37c-1.84,0-3.68,0-5.52,0a2.84,2.84,0,0,1-1.3-.38,3.77,3.77,0,0,0-2.11-.21l0,.36c1.58.39,3.15.9,4.75,1.14s3.29.21,5,.31l-.4,2.22a35.45,35.45,0,0,1-11,1.53c2.6.64,5.27.11,8.27.55-.61.48-1,1-1.28.95-1.47-.17-2.68.61-4.05,1.14l3.37.3a6.64,6.64,0,0,0-1.81,3.56c.48-.41.82-.56,1-.82,1.13-2.3,3.12-3.84,5-5.41a10.61,10.61,0,0,1,7.76-2.93,14.92,14.92,0,0,0,2.61-.28c-.14.3-.2.76-.41.85a20.16,20.16,0,0,0-7.35,5.8,12,12,0,0,0-2.85,5.59,4.38,4.38,0,0,0,.9-.87A15.78,15.78,0,0,1,270.92,56a42.51,42.51,0,0,1,7.69-3.85,7.13,7.13,0,0,1,2.48-.54,6.42,6.42,0,0,1,2,.55c.6.21,1.19.44,2,.74a3,3,0,0,1-.32,1,9.42,9.42,0,0,1-1,1,36.65,36.65,0,0,0-5.94,8.1,32.41,32.41,0,0,0-2,3.44c-.75,1.92-1.55,3.82-2.33,5.74.14.49-.95.8,0,1.56Zm-9-42.5a3.18,3.18,0,0,0-1.18,4.76,11.12,11.12,0,0,1,.05-2.61A9.85,9.85,0,0,1,264.43,29.6Zm11.41,3.48c-1,0-1,0-1.16.92Zm-12.4,32,.38,0c0-.25-.05-.5-.1-.74a.83.83,0,0,0-.27,0C263.43,64.6,263.44,64.85,263.44,65.1Z" style="fill:#fff"/><path d="M311.16,66.93a39.47,39.47,0,0,0-5.29-3.56c-1.73-1.06-3.51-2-5.31-2.9-.51-.25-1.11-.31-1.62-.57a17.33,17.33,0,0,1-2.36-1.38c-.79-.58-1.21-1.61-2.32-1.82-.12,0-.15-.55-.2-.77a16.09,16.09,0,0,0,2.64.27c1.95-.12,3.44.84,4.94,1.86,1,.68,2.08,1.25,3.08,1.92,1.39.93,2.75,1.9,4.11,2.86.41.28.68.92,1.43.37-1.12-1-1.88-2.39-3.41-2.92a1.42,1.42,0,0,1-.54-.44c-1.3-1.53-3.07-2.46-4.63-3.66-.23-.18-.25-.64-.39-1a1.7,1.7,0,0,1,2,.3,6.94,6.94,0,0,0,3.11,1.42,19.77,19.77,0,0,0,4.5.54,5.52,5.52,0,0,0,3.37-1.18c2-1.23,3.07-3.23,4.27-5.05,1-1.54,1.39-3.49,2.11-5.24.41-1,1-2,1.41-3a10.13,10.13,0,0,0,.36-1.49l-.34-.11c-.68,1.3-1.33,2.63-2.05,3.9-1.48,2.61-3.23,5-6,6.37a11.74,11.74,0,0,1-2.73.63c.26,1.52,1.76.53,2.52,1.11.21.46.24.86-.38,1.09-1,.35-1.92.75-2.88,1.13-1.3-1-3.09-.12-4.37-1.3a8.15,8.15,0,0,1-2.38-3.76,20.64,20.64,0,0,1-.69-3.75,10,10,0,0,1,1.56-6.31A11.93,11.93,0,0,0,306,37.13c.62-2.67,2.17-4.81,3.64-7A7.25,7.25,0,0,1,314,27.36c2.16-.6,4,.71,5.38,2.79a3.74,3.74,0,0,1,.13,4.29c0,.06.05.21.12.44a2.4,2.4,0,0,0,1.6-2.64c.41,0,.81-.13,1,0a6.89,6.89,0,0,1,2.64,4.32,9.93,9.93,0,0,1,.43,1.85,11.3,11.3,0,0,1-.1,2.09c0,.33-.32.66-.29,1a2.32,2.32,0,0,1-1,2.13c-.17.14-.19.48-.42,1.1l1.81-1.06a9.79,9.79,0,0,1-.12,3c-.26,1.13-1.69,1-1.84,2,1.4,1.05,1.84-1.4,3.21-.76v3.39c-1.34-.14-2.54-.88-3.84-.28l3.35,1.11V63.12c-1.34,2.18,0,4.79-1.13,7a2.48,2.48,0,0,0-.05,1.06,14.22,14.22,0,0,1-1.06,4.5c-.29.93-.49,1.89-.76,2.83a55.08,55.08,0,0,1-3.8,8.87c-.36.71-.91,1.33-1.34,2-.89,1.41-2.24,1.33-3.72,1.13-1.56-2.85-2.67-6.09-5.65-8.43.6,2.9,2.8,4.89,3,7.7a4.08,4.08,0,0,1-2.55-.1,33.87,33.87,0,0,0-4-.87c-1.18-.25-2.37-.48-3.53-.81-2-.56-4.05-1.19-6.32-1.87a8.46,8.46,0,0,1,.76-1.36,10.13,10.13,0,0,1,1.53-1.47,15.41,15.41,0,0,0,4.13-5.55A13.9,13.9,0,0,0,303,68.94a13.43,13.43,0,0,0-3.16-6.59,3.77,3.77,0,0,1-.3-.74,7.36,7.36,0,0,1,1.77.35c1.71.82,3.41,1.69,5.07,2.6a16.32,16.32,0,0,1,3.05,2,1.65,1.65,0,0,0,1.75.39c-.19,1.07.46,1.23,1.41,1Zm8.11-4.45-.4.17a2.77,2.77,0,0,0,0,1A10,10,0,0,1,320,68.54a2.59,2.59,0,0,0,.3,1,6.31,6.31,0,0,1,.07,4.62,6.21,6.21,0,0,0-.14,3.46c.77-1.54,1.64-3,1.52-4.82a15,15,0,0,1,0-2.84A8.69,8.69,0,0,0,320.17,64C319.86,63.52,319.57,63,319.27,62.48Z" style="fill:#fff"/><path d="M305.49,27.78c1.95-.81.77-2.43,1.55-3.57a4.13,4.13,0,0,1,2.56,2.3,2.48,2.48,0,0,1-.75,2.71,10.21,10.21,0,0,0-2.8,4.86c-.13.65-.71,1.2-1,1.85-.89,2.35-1.61,4.78-2.65,7.08-.44,1-.95,2.09-.49,2.79,1,1.55,0,3.4,1.1,4.88.32.43.07,1.1-.45,1.57A7.83,7.83,0,0,1,294.42,54c-1.25-.48-2.72-.59-3.44-1.81s-1.63-2.71-.93-4.37a2.9,2.9,0,0,0,.3-.8,21.23,21.23,0,0,1,.57-4.29c.57-2.17.23-4.58.74-6.78.47-2,.1-4.16.66-6.06.44-1.48.05-3.16,1.11-4.49.54-.66.89-1.47,1.42-2.15.11-.15.59,0,.92,0-.18,1.1-.34,2.1-.5,3.09l.26,0c.51-1.31,1.05-2.62,1.52-3.95a1.65,1.65,0,0,1,1.39-1.17,10.29,10.29,0,0,0,1.12-.43c.27-.09.61-.26.83-.17,2,.75,4.37.89,5.35,3.37a2.23,2.23,0,0,1,.08,2.14A6.08,6.08,0,0,0,305.49,27.78Zm-9,24.08c.4.07.63.18.73.12A5.92,5.92,0,0,0,300,48.31c.31-1.64,1-3.24.7-5-.05-.34.24-.74.39-1.11a2,2,0,0,0-.21-2.22,30.9,30.9,0,0,1-.95,4c-.54,1.44-.85,2.94-1.51,4.37A12.15,12.15,0,0,1,296.48,51.86Z" style="fill:#fff"/><path d="M288.25,25.88c2.49-.76,2.44-3,2.95-5,1.17,0,1.69.88,2.09,1.78a1.93,1.93,0,0,1,0,1.49A24.38,24.38,0,0,0,291.54,29a17.37,17.37,0,0,0-.46,4.15c0,.24.08.53,0,.71-1.05,1.69-.45,3.56-.63,5.34-.08.74-.28,1.47-.4,2.21a4,4,0,0,0-.13,1.23c.26,2-.34,3.83-.66,5.72-.28,1.73-1.71,2.49-3.26,3.12-2.22.91-3.79-.68-5.69-.87a10.62,10.62,0,0,1-1.13-.37,5,5,0,0,1-3.74-3.54c-.42-1.46.42-2.67,1.42-3.77a22.22,22.22,0,0,0,4.6-6.87,8.33,8.33,0,0,0-.24-6.79,3.23,3.23,0,0,0-2.95-2c-1.66-.11-2.05-.94-1.35-2.48.21-.46.15-1.06.38-1.51a11.76,11.76,0,0,1,5-5,2.35,2.35,0,0,1,1-.12,24.61,24.61,0,0,0,2.85,0,2.82,2.82,0,0,1,3,1.5c.71,1.18,1.24,2.55.47,4C289.16,24.42,288.69,25.14,288.25,25.88ZM282.53,48.2c.89.28,1.41.37,2-.23a6.27,6.27,0,0,0,1.88-2.47,10.31,10.31,0,0,1,.68-1.91,5.55,5.55,0,0,0,.07-4A13.7,13.7,0,0,1,282.53,48.2Z" style="fill:#fff"/><path d="M258.3,27a18.4,18.4,0,0,1,3.54-5.12c.43,1.36.59,2.66,1.82,3.6.09-.34.25-.65.18-.71-.77-.7-.58-1.61-.59-2.47,0-2.26,1-3.36,3.12-4.11a10.23,10.23,0,0,1,3.07-.51,4.65,4.65,0,0,1,3.44,1.43c.52.48,1,1,1.49,1.5s1.32,1.09,2,1.65c-.17,1.54-.35,3.2-.53,4.85C274.25,27.47,259.93,27.44,258.3,27Z" style="fill:#fff"/><path d="M289.22,93.58v-2.1c0-2.2.54-2.82,2.66-3.38,1.37-.36,2.69-.83,3.93.47-.45,1.53-.91,3.12-1.44,5A28.19,28.19,0,0,1,289.22,93.58Z" style="fill:#fff"/><path d="M288.7,94.81c1.32,0,2.55,0,3.78,0A1.5,1.5,0,0,1,294,96.88c-.19.66-.45,1.31-.7,2-1.57.84-2.94-.37-4.55-.61Z" style="fill:#fff"/><path d="M273.93,46l.81,2.73-6.51,1.52c0-.7-.07-1.38-.11-2.3,1-.25,2-.45,2.95-.77a19.66,19.66,0,0,0,1.86-.88A8.05,8.05,0,0,1,273.93,46Z" style="fill:#fff"/><path d="M264.22,138.62l.49-2.05c.53,1.78.52,1.82-.53,2Z" style="fill:#fff"/><path d="M264.43,29.6a9.85,9.85,0,0,0-1.13,2.15,11.12,11.12,0,0,0-.05,2.61A3.18,3.18,0,0,1,264.43,29.6Z" style="fill:#fff"/><path d="M275.84,33.08l-1.16.92C274.82,33.05,274.82,33.05,275.84,33.08Z" style="fill:#fff"/><path d="M256.36,28.73l-1.28.83c0-1,0-1,1.28-.83Z" style="fill:#fff"/><path d="M273.44,72.1v1.59c-.95-.76.14-1.07,0-1.56Z" style="fill:#fff"/><path d="M263.44,65.1c0-.25,0-.5,0-.74a.83.83,0,0,1,.27,0c0,.24.07.49.1.74Z" style="fill:#fff"/><path d="M319.27,62.48c.3.51.59,1,.9,1.54a8.69,8.69,0,0,1,1.59,5.91,15,15,0,0,0,0,2.84c.12,1.8-.75,3.28-1.52,4.82a6.21,6.21,0,0,1,.14-3.46,6.31,6.31,0,0,0-.07-4.62,2.59,2.59,0,0,1-.3-1,10,10,0,0,0-1.12-4.85,2.77,2.77,0,0,1,0-1Z" style="fill:#fff"/><path d="M311.16,66.93l1.44,1c-1,.23-1.6.07-1.41-1Z" style="fill:#fff"/><path d="M296.48,51.86a12.15,12.15,0,0,0,1.92-3.47c.66-1.43,1-2.93,1.51-4.37a30.9,30.9,0,0,0,.95-4,2,2,0,0,1,.21,2.22c-.15.37-.44.77-.39,1.11.27,1.74-.39,3.34-.7,5A5.92,5.92,0,0,1,297.21,52C297.11,52,296.88,51.93,296.48,51.86Z" style="fill:#fff"/><path d="M282.53,48.2a13.7,13.7,0,0,0,4.6-8.56,5.55,5.55,0,0,1-.07,4,10.31,10.31,0,0,0-.68,1.91A6.27,6.27,0,0,1,284.5,48C283.94,48.57,283.42,48.48,282.53,48.2Z" style="fill:#fff"/><path d="M22.19,459.62v-2.44H445.46a4.37,4.37,0,0,1,.18.74c0,.53,0,1.06,0,1.46l-.24.25c-.05,0-.09.09-.14.1a7.71,7.71,0,0,1-1.07.08l-421.39,0A2.81,2.81,0,0,1,22.19,459.62Z" style="fill:#fff"/></g></g></svg>